<?xml version="1.0" encoding="UTF-8" standalone="no"?>
<!-- Created with Inkscape (http://www.inkscape.org/) -->

<svg
   xmlns:dc="http://purl.org/dc/elements/1.1/"
   xmlns:cc="http://creativecommons.org/ns#"
   xmlns:rdf="http://www.w3.org/1999/02/22-rdf-syntax-ns#"
   xmlns:svg="http://www.w3.org/2000/svg"
   xmlns="http://www.w3.org/2000/svg"
   xmlns:sodipodi="http://sodipodi.sourceforge.net/DTD/sodipodi-0.dtd"
   xmlns:inkscape="http://www.inkscape.org/namespaces/inkscape"
   width="566.5"
   height="341.50003"
   id="svg2"
   version="1.1"
   inkscape:version="0.48.4 r9939"
   sodipodi:docname="consbox.svg">
  <defs
     id="defs4" />
  <sodipodi:namedview
     id="base"
     pagecolor="#ffffff"
     bordercolor="#666666"
     borderopacity="1.0"
     inkscape:pageopacity="0.0"
     inkscape:pageshadow="2"
     inkscape:zoom="0.70710678"
     inkscape:cx="437.35499"
     inkscape:cy="176.75163"
     inkscape:document-units="px"
     inkscape:current-layer="layer1"
     showgrid="false"
     inkscape:window-width="1366"
     inkscape:window-height="716"
     inkscape:window-x="-8"
     inkscape:window-y="-8"
     inkscape:window-maximized="1"
     inkscape:showpageshadow="false"
     showborder="true"
     fit-margin-top="0"
     fit-margin-left="0"
     fit-margin-right="0"
     fit-margin-bottom="0" />
  <metadata
     id="metadata7">
    <rdf:RDF>
      <cc:Work
         rdf:about="">
        <dc:format>image/svg+xml</dc:format>
        <dc:type
           rdf:resource="http://purl.org/dc/dcmitype/StillImage" />
        <dc:title />
      </cc:Work>
    </rdf:RDF>
  </metadata>
  <g
     inkscape:label="Layer 1"
     inkscape:groupmode="layer"
     id="layer1"
     transform="translate(0,-710.86216)">
    <path
       style="fill:#000000;fill-opacity:1;stroke:none"
       d="m 0,710.86216 0,250.00002 225,0 25,0 225,0 0,-250.00002 -225,0 -25,0 -225,0 z m 25,25 200,0 0,200.00002 -200,0 0,-200.00002 z m 225,0 200,0 0,200.00002 -200,0 0,-200.00002 z"
       id="rect2998"
       inkscape:connector-curvature="0"
       inkscape:export-filename="C:\Users\Per\Desktop\rect2998.png"
       inkscape:export-xdpi="90"
       inkscape:export-ydpi="90" />
    <path
       style="fill:#000000;fill-opacity:1;stroke:none"
       d="m 125,823.36216 c -6.90356,0 -12.5,5.59644 -12.5,12.5 0,6.90356 5.59644,12.5 12.5,12.5 6.90356,0 12.5,-5.59644 12.5,-12.5 0,-6.90356 -5.59644,-12.5 -12.5,-12.5 z m -12.5,35 0,144.00004 -20,0 32.5,50 32.5,-50 -20,0 0,-144.00004 -25,0 z"
       id="path3022"
       inkscape:connector-curvature="0"
       inkscape:export-filename="C:\Users\Per\Desktop\rect2998.png"
       inkscape:export-xdpi="90"
       inkscape:export-ydpi="90" />
    <path
       inkscape:connector-curvature="0"
       style="fill:#000000;fill-opacity:1;stroke:none"
       d="m 337.5,835.86216 c 0,6.9036 5.5964,12.5 12.5,12.5 6.9035,0 12.5,-5.5964 12.5,-12.5 0,-6.9036 -5.5965,-12.5 -12.5,-12.5 -6.9036,0 -12.5,5.5964 -12.5,12.5 z m 35,12.5 144,0 0,20 50,-32.5 -50,-32.5 0,20 -144,0 0,25 z"
       id="path3022-7"
       inkscape:export-filename="C:\Users\Per\Desktop\rect2998.png"
       inkscape:export-xdpi="90"
       inkscape:export-ydpi="90" />
  </g>
</svg>
